# xmcd
#
# Track frame offsets: 
#        150
#        11321
#        19247
#        27276
#        32842
#        44082
#        52754
#        64289
#        74023
#        83946
#        94936
#        104258
#        115393
#        124465
#        135987
#        148618
#        157806
#        168937
#        180637
#        188239
#        198210
#        208174
#        218834
#        230729
#        237697
#        249981
#        260235
#        271805
#        278122
#        288964
#        298983
#        308934
#
# Disc length: 4264 seconds
#
# Revision: 0
# Processed by: cddbd v1.5.2PL0 Copyright (c) Steve Scherf et al.
# Submitted via: ExactAudioCopy v0.95b4
#
DISCID=ed10a620
DTITLE=Johnny Cash - Open Road
DYEAR=1900
DGENRE=Country
TTITLE0=My Treasure
TTITLE1=You're My Baby (Little Woolly Booger) [Overdubbed]
TTITLE2=Wide Open Road
TTITLE3=My Treasure
TTITLE4=Folsom Prison Blues
TTITLE5=My Two Timin' Woman
TTITLE6=Wide Open Road
TTITLE7=Hey Porter
TTITLE8=Hey Porter
TTITLE9=Cry, Cry, Cry
TTITLE10=New Mexico
TTITLE11=Wide Open Road
TTITLE12=I Couldn't Keep from Crying
TTITLE13=Port of Lonely Hearts
TTITLE14=Folsom Prison Blues
TTITLE15=Luther Played the Boogie
TTITLE16=Mean Eyed Cat
TTITLE17=So Doggone Lonesome
TTITLE18=Rock and Roll Ruby
TTITLE19=Get Rhythm
TTITLE20=Get Rhythm
TTITLE21=Train of Love
TTITLE22=I Walk the Line
TTITLE23=Brakeman's Blues [Incomplete Take]
TTITLE24=I Walk the Line
TTITLE25=There You Go
TTITLE26=Train of Love
TTITLE27=One More Ride [Incomplete Take]
TTITLE28=I Love You Because
TTITLE29=Straight A's in Love
TTITLE30=Goodbye Little Darlin' Goodbye
TTITLE31=I Love You Because
EXTD=
EXTT0=
EXTT1=
EXTT2=
EXTT3=
EXTT4=
EXTT5=
EXTT6=
EXTT7=
EXTT8=
EXTT9=
EXTT10=
EXTT11=
EXTT12=
EXTT13=
EXTT14=
EXTT15=
EXTT16=
EXTT17=
EXTT18=
EXTT19=
EXTT20=
EXTT21=
EXTT22=
EXTT23=
EXTT24=
EXTT25=
EXTT26=
EXTT27=
EXTT28=
EXTT29=
EXTT30=
EXTT31=
PLAYORDER=
